<?xml version="1.0" standalone="no"?><!DOCTYPE svg PUBLIC "-//W3C//DTD SVG 1.1//EN" "http://www.w3.org/Graphics/SVG/1.1/DTD/svg11.dtd"><svg t="1581526772982" class="icon" viewBox="0 0 1024 1024" version="1.1" xmlns="http://www.w3.org/2000/svg" p-id="2069" xmlns:xlink="http://www.w3.org/1999/xlink" width="200" height="200"><defs><style type="text/css"></style></defs><path d="M694.826667 192c16.64 0 30.506667 19.626667 30.506666 42.666667v572.373333c0 14.08-7.893333 21.333333-12.373333 21.333333a7.466667 7.466667 0 0 1-3.413333-1.28L554.666667 723.2a74.666667 74.666667 0 0 0-83.626667 0l-155.733333 103.893333a7.466667 7.466667 0 0 1-3.413334 1.28c-4.48 0-12.373333-7.253333-12.373333-21.333333V234.666667c0-23.04 13.866667-42.666667 30.506667-42.666667h364.8m0-42.666667H329.173333A80 80 0 0 0 256 234.666667v572.373333a59.733333 59.733333 0 0 0 55.04 64 49.066667 49.066667 0 0 0 27.093333-8.32l155.733334-103.893333a31.36 31.36 0 0 1 36.266666 0l155.733334 103.893333a49.066667 49.066667 0 0 0 27.093333 8.32 59.733333 59.733333 0 0 0 55.04-64V234.666667a80 80 0 0 0-73.173333-85.333334z"  p-id="2070"></path></svg>